<svg version="1.2" xmlns="http://www.w3.org/2000/svg" viewBox="0 0 450 450" width="450" height="450">
	<title>Новый проект</title>
	<style>
		.s0 { fill: #b43e0b;stroke: #e9ac36;stroke-miterlimit:100;stroke-width: 10 } 
	</style>
	<path id="Background" fill-rule="evenodd" class="s0" d="m275.8 104c2.4 1 4.1 3.1 4.6 5.7l9.5 51.4 51.4 9.5c2.6 0.4 4.7 2.2 5.7 4.5 1 2.4 0.7 5.1-0.8 7.3l-29.7 43.1 29.7 43.1c1.5 2.1 1.8 4.8 0.8 7.2-1 2.4-3.1 4.1-5.7 4.6l-51.4 9.5-9.5 51.4c-0.5 2.6-2.2 4.7-4.6 5.7-2.4 1-5.1 0.7-7.2-0.8l-43.1-29.7-43.1 29.7c-2.1 1.5-4.8 1.8-7.2 0.8-2.4-1-4.1-3.1-4.6-5.7l-9.5-51.4-51.4-9.5c-2.6-0.5-4.7-2.2-5.7-4.6-1-2.4-0.7-5.1 0.8-7.2l29.7-43.1-29.7-43.1c-1.5-2.1-1.8-4.8-0.8-7.2 1-2.4 3.1-4.1 5.7-4.6l51.4-9.5 9.5-51.4c0.5-2.6 2.2-4.7 4.6-5.7 2.4-1 5.1-0.7 7.2 0.8l43.1 29.7 43.1-29.7c2.1-1.5 4.8-1.8 7.2-0.8zm10.7 121.5c0-16.2-6.4-31.7-17.8-43.2-11.5-11.4-27-17.8-43.2-17.8-16.2 0-31.7 6.4-43.2 17.8-11.4 11.5-17.8 27-17.8 43.2 0 16.2 6.4 31.7 17.8 43.2 11.5 11.4 27 17.8 43.2 17.8 16.2 0 31.7-6.4 43.2-17.8 11.4-11.5 17.8-27 17.8-43.2zm-106.8 0c0-12.1 4.8-23.8 13.4-32.4 8.6-8.6 20.3-13.4 32.4-13.4 12.1 0 23.8 4.8 32.4 13.4 8.6 8.6 13.4 20.3 13.4 32.4 0 12.1-4.8 23.8-13.4 32.4-8.6 8.6-20.3 13.4-32.4 13.4-12.1 0-23.8-4.8-32.4-13.4-8.6-8.6-13.4-20.3-13.4-32.4z"/>
</svg>